<svg xmlns="http://www.w3.org/2000/svg" viewBox="0 0 600 400">
  <defs>
    <linearGradient id="bg1" x1="0%" y1="0%" x2="100%" y2="100%">
      <stop offset="0%" stop-color="#7c3aed"/>
      <stop offset="100%" stop-color="#22d3ee"/>
    </linearGradient>
    <linearGradient id="card1" x1="0%" y1="0%" x2="100%" y2="100%">
      <stop offset="0%" stop-color="#1a1a2e"/>
      <stop offset="100%" stop-color="#13131f"/>
    </linearGradient>
  </defs>
  <rect width="600" height="400" fill="#0a0a0f" rx="16"/>
  <rect x="0" y="0" width="600" height="36" fill="#13131f" rx="16"/>
  <rect x="0" y="16" width="600" height="20" fill="#13131f"/>
  <circle cx="24" cy="18" r="6" fill="#ef4444" opacity="0.9"/>
  <circle cx="44" cy="18" r="6" fill="#f59e0b" opacity="0.9"/>
  <circle cx="64" cy="18" r="6" fill="#22c55e" opacity="0.9"/>
  <rect x="100" y="12" width="300" height="12" fill="#0a0a0f" rx="6"/>
  <rect x="24" y="52" width="80" height="10" fill="#7c3aed" rx="5" opacity="0.8"/>
  <rect x="140" y="52" width="50" height="10" fill="#333" rx="5"/>
  <rect x="210" y="52" width="50" height="10" fill="#333" rx="5"/>
  <rect x="280" y="52" width="50" height="10" fill="#333" rx="5"/>
  <rect x="500" y="48" width="80" height="16" fill="url(#bg1)" rx="8"/>
  <rect x="100" y="90" width="400" height="120" fill="url(#bg1)" rx="12" opacity="0.15"/>
  <text x="300" y="140" text-anchor="middle" fill="white" font-family="Arial,sans-serif" font-size="28" font-weight="bold" opacity="0.9">BotMaster</text>
  <text x="300" y="168" text-anchor="middle" fill="white" font-family="Arial,sans-serif" font-size="12" opacity="0.5">Telegram-боты и автоматизация бизнеса</text>
  <rect x="240" y="182" width="120" height="20" fill="url(#bg1)" rx="10"/>
  <text x="300" y="196" text-anchor="middle" fill="white" font-family="Arial,sans-serif" font-size="10" font-weight="bold">Обсудить проект</text>
  <rect x="24" y="230" width="180" height="150" fill="url(#card1)" rx="12" stroke="#222" stroke-width="1"/>
  <text x="36" y="258" fill="#a78bfa" font-family="Arial,sans-serif" font-size="11" font-weight="bold">Базовый</text>
  <text x="36" y="280" fill="white" font-family="Arial,sans-serif" font-size="22" font-weight="bold">15 000 ₽</text>
  <rect x="36" y="296" width="140" height="4" fill="#333" rx="2"/>
  <rect x="36" y="306" width="120" height="4" fill="#333" rx="2"/>
  <rect x="36" y="316" width="130" height="4" fill="#333" rx="2"/>
  <rect x="36" y="340" width="148" height="24" fill="#7c3aed" rx="8"/>
  <text x="110" y="356" text-anchor="middle" fill="white" font-family="Arial,sans-serif" font-size="10" font-weight="bold">Заказать</text>
  <rect x="210" y="224" width="180" height="162" fill="url(#card1)" rx="12" stroke="#7c3aed" stroke-width="2"/>
  <rect x="250" y="218" width="100" height="18" fill="url(#bg1)" rx="9"/>
  <text x="300" y="232" text-anchor="middle" fill="white" font-family="Arial,sans-serif" font-size="9" font-weight="bold">ПОПУЛЯРНОЕ</text>
  <text x="222" y="262" fill="#22d3ee" font-family="Arial,sans-serif" font-size="11" font-weight="bold">Стандарт</text>
  <text x="222" y="284" fill="white" font-family="Arial,sans-serif" font-size="22" font-weight="bold">35 000 ₽</text>
  <rect x="222" y="300" width="150" height="4" fill="#333" rx="2"/>
  <rect x="222" y="310" width="130" height="4" fill="#333" rx="2"/>
  <rect x="222" y="320" width="140" height="4" fill="#333" rx="2"/>
  <rect x="222" y="330" width="120" height="4" fill="#333" rx="2"/>
  <rect x="222" y="352" width="156" height="24" fill="url(#bg1)" rx="8"/>
  <text x="300" y="368" text-anchor="middle" fill="white" font-family="Arial,sans-serif" font-size="10" font-weight="bold">Заказать</text>
  <rect x="396" y="230" width="180" height="150" fill="url(#card1)" rx="12" stroke="#222" stroke-width="1"/>
  <text x="408" y="258" fill="#a78bfa" font-family="Arial,sans-serif" font-size="11" font-weight="bold">Премиум</text>
  <text x="408" y="280" fill="white" font-family="Arial,sans-serif" font-size="22" font-weight="bold">50 000 ₽</text>
  <rect x="408" y="296" width="140" height="4" fill="#333" rx="2"/>
  <rect x="408" y="306" width="120" height="4" fill="#333" rx="2"/>
  <rect x="408" y="316" width="130" height="4" fill="#333" rx="2"/>
  <rect x="408" y="340" width="148" height="24" fill="#7c3aed" rx="8"/>
  <text x="482" y="356" text-anchor="middle" fill="white" font-family="Arial,sans-serif" font-size="10" font-weight="bold">Заказать</text>
</svg>
