<svg xmlns="http://www.w3.org/2000/svg" viewBox="0 0 600 400">
  <defs>
    <linearGradient id="bg3" x1="0%" y1="0%" x2="100%" y2="100%">
      <stop offset="0%" stop-color="#f59e0b"/>
      <stop offset="100%" stop-color="#ef4444"/>
    </linearGradient>
    <radialGradient id="glow1" cx="50%" cy="30%">
      <stop offset="0%" stop-color="#7c3aed" stop-opacity="0.15"/>
      <stop offset="100%" stop-color="transparent"/>
    </radialGradient>
  </defs>
  <rect width="600" height="400" fill="#0a0a0f" rx="16"/>
  <rect x="0" y="0" width="600" height="36" fill="#13131f" rx="16"/>
  <rect x="0" y="16" width="600" height="20" fill="#13131f"/>
  <circle cx="24" cy="18" r="6" fill="#ef4444" opacity="0.9"/>
  <circle cx="44" cy="18" r="6" fill="#f59e0b" opacity="0.9"/>
  <circle cx="64" cy="18" r="6" fill="#22c55e" opacity="0.9"/>
  <rect x="100" y="12" width="300" height="12" fill="#0a0a0f" rx="6"/>
  <text x="24" y="62" fill="white" font-family="Arial,sans-serif" font-size="16" font-weight="bold">Nex<span fill="#22d3ee">ora</span></text>
  <text x="24" y="62" fill="white" font-family="Arial,sans-serif" font-size="16" font-weight="bold">Nex</text>
  <text x="54" y="62" fill="#22d3ee" font-family="Arial,sans-serif" font-size="16" font-weight="bold">ora</text>
  <text x="130" y="62" fill="#666" font-family="Arial,sans-serif" font-size="10">Услуги</text>
  <text x="180" y="62" fill="#666" font-family="Arial,sans-serif" font-size="10">Портфолио</text>
  <text x="250" y="62" fill="#666" font-family="Arial,sans-serif" font-size="10">Процесс</text>
  <text x="310" y="62" fill="#666" font-family="Arial,sans-serif" font-size="10">Контакты</text>
  <rect x="500" y="50" width="80" height="18" fill="url(#bg3)" rx="9"/>
  <text x="540" y="63" text-anchor="middle" fill="white" font-family="Arial,sans-serif" font-size="8" font-weight="bold">Связаться</text>
  <rect x="0" y="84" width="600" height="316" fill="url(#glow1)"/>
  <rect x="40" y="110" width="300" height="14" fill="white" rx="4" opacity="0.9"/>
  <text x="40" y="122" fill="white" font-family="Arial,sans-serif" font-size="14" font-weight="bold" opacity="0.9">Telegram-боты, сайты и</text>
  <rect x="40" y="130" width="260" height="14" rx="4" opacity="0.9"/>
  <text x="40" y="142" fill="#a78bfa" font-family="Arial,sans-serif" font-size="14" font-weight="bold">автоматизация для бизнеса</text>
  <text x="40" y="168" fill="#888" font-family="Arial,sans-serif" font-size="9">Создаём цифровые решения, которые</text>
  <text x="40" y="182" fill="#888" font-family="Arial,sans-serif" font-size="9">работают на ваш бизнес 24/7.</text>
  <rect x="40" y="200" width="110" height="22" fill="url(#bg3)" rx="11"/>
  <text x="95" y="215" text-anchor="middle" fill="white" font-family="Arial,sans-serif" font-size="9" font-weight="bold">Посмотреть работы</text>
  <rect x="160" y="200" width="100" height="22" fill="transparent" rx="11" stroke="#333" stroke-width="1"/>
  <text x="210" y="215" text-anchor="middle" fill="white" font-family="Arial,sans-serif" font-size="9">Связаться</text>
  <rect x="380" y="100" width="190" height="200" fill="url(#bg3)" rx="12" opacity="0.12"/>
  <rect x="400" y="120" width="150" height="12" fill="white" rx="4" opacity="0.3"/>
  <rect x="420" y="140" width="110" height="8" fill="white" rx="4" opacity="0.2"/>
  <rect x="410" y="160" width="130" height="80" fill="white" rx="8" opacity="0.08"/>
  <rect x="380" y="250" width="60" height="6" fill="#f59e0b" rx="3" opacity="0.6"/>
  <rect x="380" y="262" width="80" height="6" fill="#333" rx="3"/>
  <rect x="380" y="274" width="70" height="6" fill="#333" rx="3"/>
  <rect x="460" y="250" width="60" height="6" fill="#22d3ee" rx="3" opacity="0.6"/>
  <rect x="460" y="262" width="80" height="6" fill="#333" rx="3"/>
  <rect x="460" y="274" width="70" height="6" fill="#333" rx="3"/>
  <rect x="540" y="250" width="60" height="6" fill="#34d399" rx="3" opacity="0.6"/>
  <rect x="540" y="262" width="50" height="6" fill="#333" rx="3"/>
  <rect x="540" y="274" width="40" height="6" fill="#333" rx="3"/>
  <rect x="40" y="290" width="520" height="1" fill="#222"/>
  <rect x="40" y="310" width="80" height="50" fill="#13131f" rx="8" stroke="#222" stroke-width="1"/>
  <text x="52" y="332" fill="#a78bfa" font-family="Arial,sans-serif" font-size="8">3+</text>
  <text x="52" y="346" fill="#555" font-family="Arial,sans-serif" font-size="7">проектов</text>
  <rect x="140" y="310" width="80" height="50" fill="#13131f" rx="8" stroke="#222" stroke-width="1"/>
  <text x="152" y="332" fill="#22d3ee" font-family="Arial,sans-serif" font-size="8">500+</text>
  <text x="152" y="346" fill="#555" font-family="Arial,sans-serif" font-size="7">заявок</text>
  <rect x="240" y="310" width="80" height="50" fill="#13131f" rx="8" stroke="#222" stroke-width="1"/>
  <text x="252" y="332" fill="#34d399" font-family="Arial,sans-serif" font-size="8">24/7</text>
  <text x="252" y="346" fill="#555" font-family="Arial,sans-serif" font-size="7">работают</text>
  <rect x="40" y="370" width="140" height="6" fill="#222" rx="3"/>
  <rect x="40" y="382" width="100" height="6" fill="#1a1a2e" rx="3"/>
</svg>
