<svg xmlns="http://www.w3.org/2000/svg" viewBox="0 0 600 400">
  <defs>
    <linearGradient id="bg2" x1="0%" y1="0%" x2="100%" y2="100%">
      <stop offset="0%" stop-color="#06b6d4"/>
      <stop offset="100%" stop-color="#0ea5e9"/>
    </linearGradient>
    <linearGradient id="userMsg" x1="0%" y1="0%" x2="100%" y2="100%">
      <stop offset="0%" stop-color="#7c3aed"/>
      <stop offset="100%" stop-color="#8b5cf6"/>
    </linearGradient>
  </defs>
  <rect width="600" height="400" fill="#0a0a0f" rx="16"/>
  <rect x="185" y="16" width="230" height="368" fill="#13131f" rx="24" stroke="#222" stroke-width="1.5"/>
  <rect x="260" y="22" width="80" height="6" fill="#333" rx="3"/>
  <rect x="185" y="44" width="230" height="48" fill="#1a1a2e" rx="0"/>
  <rect x="185" y="84" width="230" height="1" fill="#222"/>
  <circle cx="218" cy="68" r="16" fill="#06b6d4" opacity="0.2"/>
  <circle cx="218" cy="68" r="12" fill="url(#bg2)"/>
  <text x="218" y="73" text-anchor="middle" fill="white" font-family="Arial,sans-serif" font-size="12" font-weight="bold">B</text>
  <text x="240" y="64" fill="white" font-family="Arial,sans-serif" font-size="12" font-weight="bold">BotMaster</text>
  <text x="240" y="78" fill="#666" font-family="Arial,sans-serif" font-size="9">online</text>
  <text x="400" y="72" fill="#666" font-family="Arial,sans-serif" font-size="9">●●●</text>
  <rect x="310" y="104" width="88" height="32" fill="url(#userMsg)" rx="16"/>
  <text x="354" y="124" text-anchor="middle" fill="white" font-family="Arial,sans-serif" font-size="10">Здравствуйте!</text>
  <rect x="202" y="148" width="140" height="56" fill="#1a1a2e" rx="16"/>
  <text x="218" y="168" fill="#ccc" font-family="Arial,sans-serif" font-size="10">Здравствуйте! Я бот Nexora.</text>
  <text x="218" y="184" fill="#ccc" font-family="Arial,sans-serif" font-size="10">Как могу помочь? Выберите</text>
  <text x="218" y="196" fill="#06b6d4" font-family="Arial,sans-serif" font-size="10">услугу из меню ↓</text>
  <rect x="202" y="216" width="196" height="36" fill="#0a0a0f" rx="8" stroke="#333" stroke-width="1"/>
  <text x="216" y="232" fill="#06b6d4" font-family="Arial,sans-serif" font-size="9">🤖 Telegram-бот</text>
  <text x="216" y="246" fill="#aaa" font-family="Arial,sans-serif" font-size="9">🌐 Лендинг</text>
  <text x="316" y="232" fill="#aaa" font-family="Arial,sans-serif" font-size="9">⚡ Автоматизация</text>
  <text x="316" y="246" fill="#aaa" font-family="Arial,sans-serif" font-size="9">💬 Консультация</text>
  <rect x="292" y="268" width="106" height="32" fill="url(#userMsg)" rx="16"/>
  <text x="345" y="288" text-anchor="middle" fill="white" font-family="Arial,sans-serif" font-size="10">Telegram-бот</text>
  <rect x="202" y="312" width="170" height="56" fill="#1a1a2e" rx="16"/>
  <text x="218" y="332" fill="#ccc" font-family="Arial,sans-serif" font-size="10">Отличный выбор! 🎉</text>
  <text x="218" y="348" fill="#ccc" font-family="Arial,sans-serif" font-size="10">Введите ваше имя:</text>
  <rect x="202" y="374" width="196" height="18" fill="#0a0a0f" rx="9" stroke="#333" stroke-width="1"/>
  <text x="216" y="386" fill="#555" font-family="Arial,sans-serif" font-size="9">Введите сообщение...</text>
  <circle cx="382" cy="383" r="7" fill="url(#bg2)"/>
  <rect x="40" y="50" width="120" height="10" fill="#333" rx="5"/>
  <text x="40" y="80" fill="#555" font-family="Arial,sans-serif" font-size="10">Сбор заявок</text>
  <rect x="40" y="100" width="100" height="6" fill="#222" rx="3"/>
  <rect x="40" y="112" width="130" height="6" fill="#222" rx="3"/>
  <rect x="40" y="124" width="90" height="6" fill="#222" rx="3"/>
  <rect x="440" y="50" width="120" height="10" fill="#333" rx="5"/>
  <text x="440" y="80" fill="#555" font-family="Arial,sans-serif" font-size="10">Email-уведомления</text>
  <rect x="440" y="100" width="110" height="6" fill="#222" rx="3"/>
  <rect x="440" y="112" width="100" height="6" fill="#222" rx="3"/>
  <rect x="440" y="124" width="120" height="6" fill="#222" rx="3"/>
  <rect x="40" y="300" width="120" height="10" fill="#333" rx="5"/>
  <text x="40" y="330" fill="#555" font-family="Arial,sans-serif" font-size="10">Excel / Таблицы</text>
  <rect x="40" y="350" width="100" height="6" fill="#222" rx="3"/>
  <rect x="40" y="362" width="130" height="6" fill="#222" rx="3"/>
  <rect x="440" y="300" width="120" height="10" fill="#333" rx="5"/>
  <text x="440" y="330" fill="#555" font-family="Arial,sans-serif" font-size="10">Кнопки и меню</text>
  <rect x="440" y="350" width="110" height="6" fill="#222" rx="3"/>
  <rect x="440" y="362" width="90" height="6" fill="#222" rx="3"/>
</svg>
